<svg xmlns="http://www.w3.org/2000/svg" xmlns:xlink="http://www.w3.org/1999/xlink" viewBox="0 0 500 500"><defs><clipPath id="freepik--clip-path--inject-51"><path d="M225.83,165.12a31.4,31.4,0,1,1,43-10.94A31.41,31.41,0,0,1,225.83,165.12Z" style="fill:none"></path></clipPath></defs><g id="freepik--background-complete--inject-51"><rect y="382.4" width="500" height="0.25" style="fill:#ebebeb"></rect><rect x="322.53" y="401.21" width="8.69" height="0.25" style="fill:#ebebeb"></rect><rect x="150.04" y="388.78" width="23.18" height="0.25" style="fill:#ebebeb"></rect><rect x="402.1" y="394.14" width="56.67" height="0.25" style="fill:#ebebeb"></rect><rect x="42.72" y="394.14" width="56.67" height="0.25" style="fill:#ebebeb"></rect><path d="M237,337.8H43.91a5.71,5.71,0,0,1-5.7-5.71V60.66A5.71,5.71,0,0,1,43.91,55H237a5.71,5.71,0,0,1,5.71,5.71V332.09A5.71,5.71,0,0,1,237,337.8ZM43.91,55.2a5.46,5.46,0,0,0-5.45,5.46V332.09a5.46,5.46,0,0,0,5.45,5.46H237a5.47,5.47,0,0,0,5.46-5.46V60.66A5.47,5.47,0,0,0,237,55.2Z" style="fill:#ebebeb"></path><path d="M453.31,337.8H260.21a5.72,5.72,0,0,1-5.71-5.71V60.66A5.72,5.72,0,0,1,260.21,55h193.1A5.71,5.71,0,0,1,459,60.66V332.09A5.71,5.71,0,0,1,453.31,337.8ZM260.21,55.2a5.47,5.47,0,0,0-5.46,5.46V332.09a5.47,5.47,0,0,0,5.46,5.46h193.1a5.47,5.47,0,0,0,5.46-5.46V60.66a5.47,5.47,0,0,0-5.46-5.46Z" style="fill:#ebebeb"></path><path d="M180.37,215.32H370.46a7.3,7.3,0,0,0,7.35-7.86L367.07,41a8.54,8.54,0,0,0-8.38-7.86H168.61A7.3,7.3,0,0,0,161.25,41L172,207.46A8.54,8.54,0,0,0,180.37,215.32Z" style="fill:#ebebeb"></path><path d="M374.47,206.45,364.36,49.91a6,6,0,0,0-5.95-5.59H170.33a5.17,5.17,0,0,0-5.23,5.59l10.11,156.54a6.05,6.05,0,0,0,5.95,5.6H369.24A5.18,5.18,0,0,0,374.47,206.45Z" style="fill:#fafafa"></path><polygon points="289.69 148.54 347.65 148.54 341.58 50.24 283.62 50.24 289.69 148.54" style="fill:#f5f5f5"></polygon><polygon points="204.34 121.07 245.09 121.07 240.82 51.95 200.07 51.95 204.34 121.07" style="fill:#f5f5f5"></polygon><path d="M168.61,33.18H358.69A8.54,8.54,0,0,1,367.07,41H161.25A7.3,7.3,0,0,1,168.61,33.18Z" style="fill:#f5f5f5"></path><path d="M354.05,37.11a2.07,2.07,0,0,0,2,1.91,1.77,1.77,0,0,0,1.79-1.91,2.07,2.07,0,0,0-2-1.91A1.78,1.78,0,0,0,354.05,37.11Z" style="fill:#fff"></path><path d="M344.76,37.11a2.07,2.07,0,0,0,2,1.91,1.77,1.77,0,0,0,1.79-1.91,2.07,2.07,0,0,0-2-1.91A1.77,1.77,0,0,0,344.76,37.11Z" style="fill:#fff"></path><path d="M335.47,37.11a2.07,2.07,0,0,0,2,1.91,1.78,1.78,0,0,0,1.79-1.91,2.07,2.07,0,0,0-2-1.91A1.77,1.77,0,0,0,335.47,37.11Z" style="fill:#fff"></path><path d="M83.68,291H319.05a9.05,9.05,0,0,0,9.12-9.74L314.86,75.23a10.56,10.56,0,0,0-10.37-9.74H69.12A9,9,0,0,0,60,75.23l13.3,206.06A10.58,10.58,0,0,0,83.68,291Z" style="fill:#f5f5f5"></path><path d="M324,280.05,311.51,86.21a7.5,7.5,0,0,0-7.37-6.92H71.25a6.41,6.41,0,0,0-6.47,6.92L77.29,280.05A7.5,7.5,0,0,0,84.66,287H317.55A6.42,6.42,0,0,0,324,280.05Z" style="fill:#fff"></path><polygon points="180.54 212.49 252.3 212.49 244.78 90.78 173.02 90.78 180.54 212.49" style="fill:#f5f5f5"></polygon><polygon points="96.97 187.35 147.43 187.35 142.15 101.76 91.68 101.76 96.97 187.35" style="fill:#f5f5f5"></polygon><polygon points="95.59 253.47 117.86 253.47 115.52 215.71 93.26 215.71 95.59 253.47" style="fill:#f5f5f5"></polygon><polygon points="124.68 253.47 146.94 253.47 144.61 215.71 122.35 215.71 124.68 253.47" style="fill:#f5f5f5"></polygon><path d="M69.12,65.49H304.49a10.56,10.56,0,0,1,10.37,9.74H60A9,9,0,0,1,69.12,65.49Z" style="fill:#ebebeb"></path><ellipse cx="301.11" cy="70.36" rx="2.29" ry="2.44" transform="translate(41.14 237.78) rotate(-45.93)" style="fill:#fff"></ellipse><path d="M287.24,70.36a2.55,2.55,0,0,0,2.51,2.36A2.18,2.18,0,0,0,292,70.36,2.55,2.55,0,0,0,289.45,68,2.18,2.18,0,0,0,287.24,70.36Z" style="fill:#fff"></path><path d="M275.73,70.36a2.57,2.57,0,0,0,2.52,2.36,2.19,2.19,0,0,0,2.21-2.36A2.55,2.55,0,0,0,277.94,68,2.19,2.19,0,0,0,275.73,70.36Z" style="fill:#fff"></path><path d="M420.39,367.44H242a6.85,6.85,0,0,1-6.9-7.38l10.08-156.13a8,8,0,0,1,7.86-7.39H431.42a6.87,6.87,0,0,1,6.91,7.39L428.25,360.06A8,8,0,0,1,420.39,367.44Z" style="fill:#f5f5f5"></path><path d="M238.28,359.12l9.48-146.87a5.68,5.68,0,0,1,5.58-5.25H429.81a4.86,4.86,0,0,1,4.91,5.25l-9.49,146.87a5.67,5.67,0,0,1-5.58,5.25H243.18A4.86,4.86,0,0,1,238.28,359.12Z" style="fill:#fff"></path><polygon points="347 307.93 292.63 307.93 298.32 215.71 352.7 215.71 347 307.93" style="fill:#f5f5f5"></polygon><polygon points="403.15 354.43 344.95 354.43 351.05 255.72 409.25 255.72 403.15 354.43" style="fill:#f5f5f5"></polygon><path d="M431.42,196.54H253.08a8,8,0,0,0-7.86,7.39H438.33A6.87,6.87,0,0,0,431.42,196.54Z" style="fill:#ebebeb"></path><path d="M257.43,200.23a1.93,1.93,0,0,1-1.9,1.79,1.66,1.66,0,0,1-1.68-1.79,2,2,0,0,1,1.91-1.79A1.65,1.65,0,0,1,257.43,200.23Z" style="fill:#fff"></path><path d="M266.15,200.23a1.93,1.93,0,0,1-1.9,1.79,1.66,1.66,0,0,1-1.68-1.79,1.94,1.94,0,0,1,1.91-1.79A1.67,1.67,0,0,1,266.15,200.23Z" style="fill:#fff"></path><path d="M274.87,200.23A1.94,1.94,0,0,1,273,202a1.65,1.65,0,0,1-1.67-1.79,1.94,1.94,0,0,1,1.9-1.79A1.67,1.67,0,0,1,274.87,200.23Z" style="fill:#fff"></path></g><g id="freepik--Shadow--inject-51"><ellipse id="freepik--path--inject-51" cx="250" cy="416.24" rx="193.89" ry="11.32" style="fill:#f5f5f5"></ellipse></g><g id="freepik--Code--inject-51"><rect x="399.49" y="128.67" width="8.79" height="1" transform="translate(244.36 522.06) rotate(-85.64)" style="fill:#FFFFFF"></rect><rect x="393.65" y="102.87" width="24.44" height="1" transform="translate(271.87 500.18) rotate(-85.63)" style="fill:#FFFFFF"></rect><polygon points="406.68 53.51 234.68 53.51 212.79 339.32 384.79 339.32 406.68 53.51" style="fill:#FFFFFF"></polygon><g style="opacity:0.7000000000000001"><polygon points="400.21 46.51 228.21 46.51 206.32 332.32 378.32 332.32 400.21 46.51" style="fill:#FFFFFF"></polygon><polygon points="400.21 46.51 228.21 46.51 206.32 332.32 378.32 332.32 400.21 46.51" style="fill:#fff;opacity:0.9"></polygon></g><polygon points="274.79 79.6 241.46 79.6 242.11 71.08 275.44 71.08 274.79 79.6" style="fill:#FFFFFF"></polygon><polygon points="331.47 98.33 240.02 98.33 240.68 89.81 332.12 89.81 331.47 98.33" style="fill:#fff"></polygon><polygon points="360.01 79.6 284.79 79.6 285.44 71.08 360.67 71.08 360.01 79.6" style="fill:#fff"></polygon><polygon points="322.37 135.8 361.71 135.8 362.36 127.29 323.03 127.29 322.37 135.8" style="fill:#fff"></polygon><polygon points="345.57 108.55 239.24 108.55 238.59 117.07 344.92 117.07 345.57 108.55" style="fill:#fff"></polygon><polygon points="237.15 135.8 312.37 135.8 313.03 127.29 237.81 127.29 237.15 135.8" style="fill:#FFFFFF"></polygon><polygon points="269.05 154.54 235.72 154.54 236.37 146.02 269.7 146.02 269.05 154.54" style="fill:#FFFFFF"></polygon><polygon points="292.45 173.27 234.28 173.27 234.93 164.76 293.1 164.76 292.45 173.27" style="fill:#fff"></polygon><polygon points="345.62 173.27 302.45 173.27 303.1 164.76 346.27 164.76 345.62 173.27" style="fill:#fff"></polygon><polygon points="354.27 154.54 279.05 154.54 279.7 146.02 354.93 146.02 354.27 154.54" style="fill:#fff"></polygon><polygon points="316.63 210.75 355.97 210.75 356.62 202.23 317.29 202.23 316.63 210.75" style="fill:#FFFFFF"></polygon><polygon points="339.83 183.49 233.5 183.49 232.85 192.01 339.18 192.01 339.83 183.49" style="fill:#fff"></polygon><polygon points="231.41 210.75 306.63 210.75 307.29 202.23 232.06 202.23 231.41 210.75" style="fill:#fff"></polygon><polygon points="372.1 288.75 225.44 288.75 230.06 228.41 376.73 228.41 372.1 288.75" style="fill:#fff;opacity:0.4"></polygon><polygon points="371.13 301.41 224.47 301.41 223.19 318.08 369.86 318.08 371.13 301.41" style="fill:#fff;opacity:0.4"></polygon></g><g id="freepik--Character--inject-51"><path d="M141.41,203.81l-2-2.49a3.65,3.65,0,0,0-3.07-1.4l-5.55.25a6.89,6.89,0,0,0-5.46,3.15l-.75,1.16c3,4.35,9.37,6.87,9.37,6.87l1.74.92a3.07,3.07,0,0,0,4.2-1.19l1.87-3.44A3.54,3.54,0,0,0,141.41,203.81Z" style="fill:#ce7a63"></path><path d="M133.76,163.33l-.92,1.3-1,1.44c-.65,1-1.32,2-2,3-1.29,2-2.49,4.06-3.64,6.12s-2.2,4.18-3.16,6.3-1.77,4.27-2.52,6.43l.2-1.42c-.15,0-.2.84.29,2a18.89,18.89,0,0,0,2.35,3.75,45.31,45.31,0,0,0,3.45,3.95c1.23,1.3,2.64,2.63,3.87,3.86l.25.24a3.77,3.77,0,0,1-3.87,6.25,40.33,40.33,0,0,1-6-2.59,39.17,39.17,0,0,1-5.58-3.57,26.93,26.93,0,0,1-5.19-5.25,18.57,18.57,0,0,1-2.14-3.89,14.1,14.1,0,0,1-1-5.22,4.83,4.83,0,0,1,.1-.94l.11-.48a64.47,64.47,0,0,1,2.32-8.33c.46-1.35,1-2.66,1.52-4s1.13-2.6,1.75-3.86a78.68,78.68,0,0,1,4-7.38c.75-1.18,1.49-2.37,2.31-3.52.41-.57.82-1.15,1.25-1.72s.85-1.1,1.42-1.81a7.5,7.5,0,0,1,12,9Z" style="fill:#ce7a63"></path><path d="M135.78,145.46c2.81,6.4,3.34,16.32-5.34,28.54-5.74.62-17.07-8.76-17.07-8.76S120.7,144.79,135.78,145.46Z" style="fill:#FFFFFF"></path><path d="M119.49,166.19h0a2.36,2.36,0,0,0,1.8-.78,2.31,2.31,0,0,0,.5-1.85,3.24,3.24,0,0,0-3.14-2.69h0a2.33,2.33,0,0,0-1.8.78,2.27,2.27,0,0,0-.51,1.85A3.27,3.27,0,0,0,119.49,166.19Z" style="fill:none"></path><path d="M126.9,151.47h0a2.29,2.29,0,0,0-1.8.78,2.26,2.26,0,0,0-.51,1.84,3.26,3.26,0,0,0,3.14,2.69h0a2.32,2.32,0,0,0,1.8-.78,2.28,2.28,0,0,0,.5-1.84h0A3.24,3.24,0,0,0,126.9,151.47Z" style="fill:none"></path><path d="M119.49,166.66h0a2.7,2.7,0,0,0,2.77-3.17h0a3.74,3.74,0,0,0-3.61-3.1h0a2.78,2.78,0,0,0-2.16,1,2.74,2.74,0,0,0-.62,2.22A3.75,3.75,0,0,0,119.49,166.66Zm-2.63-5a2.33,2.33,0,0,1,1.8-.78h0a3.24,3.24,0,0,1,3.14,2.69,2.31,2.31,0,0,1-.5,1.85,2.36,2.36,0,0,1-1.8.78h0a3.27,3.27,0,0,1-3.14-2.69A2.27,2.27,0,0,1,116.86,161.65Z" style="fill:#fff"></path><path d="M126.9,151h0a2.8,2.8,0,0,0-2.16.95,2.72,2.72,0,0,0-.62,2.22,3.75,3.75,0,0,0,3.61,3.1h0a2.84,2.84,0,0,0,2.16-.94,2.78,2.78,0,0,0,.61-2.23A3.74,3.74,0,0,0,126.9,151Zm2.64,5a2.32,2.32,0,0,1-1.8.78h0a3.26,3.26,0,0,1-3.14-2.69,2.26,2.26,0,0,1,.51-1.84,2.29,2.29,0,0,1,1.8-.78h0a3.24,3.24,0,0,1,3.14,2.69h0A2.28,2.28,0,0,1,129.54,156Z" style="fill:#fff"></path><path d="M127.31,172.88a2.31,2.31,0,0,1,.5-1.85,2.39,2.39,0,0,1,1.8-.78h0a3.25,3.25,0,0,1,2.49,1.25c.09-.15.16-.29.25-.43a3.72,3.72,0,0,0-2.74-1.29h0a2.84,2.84,0,0,0-2.16.94,2.78,2.78,0,0,0-.61,2.23,4.9,4.9,0,0,0,.13.55l.59.17A2.7,2.7,0,0,1,127.31,172.88Z" style="fill:#fff"></path><path d="M136,147.86h0a3.5,3.5,0,0,0,.65-.07l-.15-.46a2.73,2.73,0,0,1-.5,0h0a3.29,3.29,0,0,1-2.86-1.81l-.48.07A3.77,3.77,0,0,0,136,147.86Z" style="fill:#fff"></path><path d="M135.55,163.48a2.28,2.28,0,0,1,.51-1.85,2,2,0,0,1,.66-.5c.05-.2.09-.38.13-.57a2.56,2.56,0,0,0-1.15.76,2.75,2.75,0,0,0-.62,2.23,3.36,3.36,0,0,0,.44,1.23c.08-.21.15-.41.23-.61A2.73,2.73,0,0,1,135.55,163.48Z" style="fill:#fff"></path><path d="M138.53,122.42c2.47,6.5,3.39,19.41,0,23,0,0,7.63-1.43,20.1,6.28,3.61-5.18.93-6.28.93-6.28-7-1.65-6.66-7.47-5.81-12.28Z" style="fill:#ce7a63"></path><path d="M162.16,113c.13.85.66,1.5,1.21,1.46s.88-.76.76-1.6-.66-1.51-1.2-1.46S162,112.15,162.16,113Z" style="fill:#263238"></path><path d="M162.69,111.46l1.91-.73S163.81,112.39,162.69,111.46Z" style="fill:#263238"></path><path d="M162.35,114.6a25,25,0,0,0,3.74,5.19c-1,1.12-2.88.78-2.88.78Z" style="fill:#ba4d3c"></path><path d="M163.58,106.26a.46.46,0,0,0,0-.36.49.49,0,0,0-.61-.33,5.2,5.2,0,0,0-3.6,2.92.45.45,0,0,0,.31.6.54.54,0,0,0,.65-.31,4.17,4.17,0,0,1,2.88-2.29A.51.51,0,0,0,163.58,106.26Z" style="fill:#263238"></path><path d="M134.34,111.94c1.88,10,2.47,14.27,8.18,19.07,8.59,7.22,20.39,3.4,21.52-6.8,1-9.19-2.23-24-12.54-27.32A13.05,13.05,0,0,0,134.34,111.94Z" style="fill:#ce7a63"></path><path d="M128.44,94.78c-7,.22-10.27,7.51-5.55,10.77-.26-2.84,2.6-2.44,2.6-2.44s1.51,8.12-5.74,6.39a5.75,5.75,0,0,0,5.3,4.5s-3.47,3.61.44,10.56c2.72,4.83,1.25,10.44-1.57,8.66,2.75,3.67,8.29,2.53,8.86-.33,3.47,6.11,12,8.1,14.93,5.86-2.17-.92-3.54-3.4-2.42-4.58s11.26,2.05,14.1,6.05c.28-1.89,1.61-7.55-.83-9.66,7.77,3.44,9.77-1,10-2.78-2,2.51-11.23-2.49-10.89-7.82-2.78-.81-2.09-3.81-1-5.36,3.41-3.37,4-8.41,1.44-9.82,6.49-.2,11.93-4.61,8.56-10-1.11,3.89-5.15,3.14-7.28.94,2.13-3.25.7-8.23-4.61-6.78s-13,2.52-13.2-2.56c0,0-5.37,1.25-4.41,5.56C129.79,89.75,126.56,92.67,128.44,94.78Z" style="fill:#263238"></path><path d="M152.54,116.66a7,7,0,0,0,4,4c2.29.77,3.47-1.83,2.87-4.54-.53-2.44-2.37-5.78-4.68-5.36S151.53,114.24,152.54,116.66Z" style="fill:#ce7a63"></path><path d="M110.63,421.17c-6.65,0-9.41-3.1-13.38-5.06-3.38-1.68-5-1.43-7.71-2.75-2.29-1.09-1.21-3.27.66-5.49.94-1.12,1.19-2.26,2.32-4.31L104,406.74c.74,3.41,2.07,8.18,8.81,10.59C116.85,418.77,113.77,421.17,110.63,421.17Z" style="fill:#263238"></path><path d="M185.09,421.2c-7.73,0-9.21-.51-13.55-.66-3.72-.13-4.34.66-8.11.66-2.5,0-2.84-2.82-1.93-4.93.71-1.64.82-3.61,1.34-5.74h10.65c1.93,3.37,7.16,5.87,13,6.29C190.7,417.13,188.18,421.2,185.09,421.2Z" style="fill:#263238"></path><path d="M176.06,210.63s1.54,55.58-1.75,90.88c.2,33.13-.82,109-.82,109-.25,1.69-9.14,1-10.65,0,0,0-16.64-55.27-9.25-109-18.5-56.06-14.51-90.88-14.51-90.88Z" style="fill:#FFFFFF"></path><path d="M171.08,408.92a.51.51,0,0,1-.5-.5c0-.72-.86-72.54-1.07-105.8a22,22,0,0,1,.09-2.27c3.12-34.9,1.67-89.16,1.65-89.71a.5.5,0,0,1,.49-.51.53.53,0,0,1,.51.49c0,.54,1.47,54.86-1.65,89.82a20.18,20.18,0,0,0-.09,2.18c.21,33.26,1.06,105.07,1.07,105.79a.49.49,0,0,1-.49.51Z" style="fill:#fff;opacity:0.2"></path><path d="M139.59,304.17c7.32-30.81,25.38-93.54,25.38-93.54H133.63s-20.8,18.33-16.6,95C116.47,312.61,136.91,315,139.59,304.17Z" style="fill:#FFFFFF"></path><path d="M139.21,305.33a16,16,0,0,0-2.59,1.38,3.06,3.06,0,0,0-1.83-2.65c-1.77-.52-3.94,1.57-4.84,4.66-.07.21-.1.41-.15.62-3.35-2.82-11-4.07-13.33-2.73-1.83,5.22-12.42,26-3,31.31,9.23,5.14,17.47-.69,20.38-8.31S141.56,308.89,139.21,305.33Z" style="fill:#FFFFFF"></path><path d="M139.21,305.33a16,16,0,0,0-2.59,1.38,3.06,3.06,0,0,0-1.83-2.65c-1.77-.52-3.94,1.57-4.84,4.66-.07.21-.1.41-.15.62-3.35-2.82-11-4.07-13.33-2.73-1.83,5.22-12.42,26-3,31.31,9.23,5.14,17.47-.69,20.38-8.31S141.56,308.89,139.21,305.33Z" style="fill:#fff;opacity:0.5"></path><path d="M113.52,336.24,95.75,401.92l5,1.64,20.55-64.62S119.11,335.17,113.52,336.24Z" style="fill:#263238"></path><path d="M106.09,402.66a29.82,29.82,0,0,0-.78,4.37.91.91,0,0,1-1,.84c-4.4-.49-10.23-3.15-12.07-4a.9.9,0,0,1-.5-.93l.47-4.15a.91.91,0,0,1,1.17-.78l12.1,3.59A.92.92,0,0,1,106.09,402.66Z" style="fill:#FFFFFF"></path><path d="M174.71,405.86c0,1.15.1,3.2.21,4.71a1,1,0,0,1-.84,1,63.37,63.37,0,0,1-11.76-.13.86.86,0,0,1-.77-.7l-.79-4.13a1,1,0,0,1,.91-1.13L173.8,405A.86.86,0,0,1,174.71,405.86Z" style="fill:#FFFFFF"></path><path d="M178.46,160.68a190.58,190.58,0,0,1-.28,19.41c-.33,8.43-.9,16.72-2.12,30.54H133.63c.85-11.95-.54-25.57-8.16-52.46a9.91,9.91,0,0,1,8.47-12.87c1.68-.17,3.46-.31,5.29-.4a135.92,135.92,0,0,1,19.26,0c2.1.19,4.27.46,6.34.75A16,16,0,0,1,178.46,160.68Z" style="fill:#FFFFFF"></path><path d="M152.36,194.35h0a2.36,2.36,0,0,0,1.81-.78,2.31,2.31,0,0,0,.5-1.85h0a3.25,3.25,0,0,0-3.14-2.69h0a2.33,2.33,0,0,0-1.8.78,2.27,2.27,0,0,0-.51,1.85A3.26,3.26,0,0,0,152.36,194.35Z" style="fill:none"></path><path d="M157.05,160.84a2.36,2.36,0,0,0-1.8.78,2.3,2.3,0,0,0-.5,1.85,3.25,3.25,0,0,0,3.14,2.69h0a2.33,2.33,0,0,0,1.8-.78,2.28,2.28,0,0,0,.51-1.85h0a3.26,3.26,0,0,0-3.14-2.69Z" style="fill:none"></path><path d="M146.1,151.45h0a2.33,2.33,0,0,0-1.8.78,2.27,2.27,0,0,0-.51,1.85,3.26,3.26,0,0,0,3.14,2.69h0a2.36,2.36,0,0,0,1.81-.78,2.3,2.3,0,0,0,.5-1.85h0A3.25,3.25,0,0,0,146.1,151.45Z" style="fill:none"></path><path d="M137.86,160.85a2.33,2.33,0,0,0-1.8.78,2.28,2.28,0,0,0-.51,1.85,3.25,3.25,0,0,0,3.14,2.69h0a2.33,2.33,0,0,0,1.8-.78,2.27,2.27,0,0,0,.51-1.85,3.25,3.25,0,0,0-3.14-2.69Z" style="fill:none"></path><path d="M163,154.06a3.24,3.24,0,0,0,3.14,2.69h0a2.29,2.29,0,0,0,1.8-.78,2.26,2.26,0,0,0,.51-1.84,3.26,3.26,0,0,0-3.14-2.69h0a2.35,2.35,0,0,0-1.81.77A2.31,2.31,0,0,0,163,154.06Z" style="fill:none"></path><path d="M144.12,203.75h0a2.33,2.33,0,0,0,1.8-.78,2.27,2.27,0,0,0,.51-1.85,3.26,3.26,0,0,0-3.14-2.69h0a2.33,2.33,0,0,0-1.8.78,2.27,2.27,0,0,0-.51,1.85A3.25,3.25,0,0,0,144.12,203.75Z" style="fill:none"></path><path d="M149.65,175.56h0a2.33,2.33,0,0,0,1.8-.78,2.27,2.27,0,0,0,.51-1.85,3.27,3.27,0,0,0-3.14-2.69h0a2.36,2.36,0,0,0-1.8.78,2.3,2.3,0,0,0-.5,1.85A3.25,3.25,0,0,0,149.65,175.56Z" style="fill:none"></path><path d="M159.77,179.63h0a2.29,2.29,0,0,0-1.8.78,2.26,2.26,0,0,0-.51,1.84,3.27,3.27,0,0,0,3.14,2.7h0a2.39,2.39,0,0,0,1.8-.78,2.31,2.31,0,0,0,.5-1.85A3.24,3.24,0,0,0,159.77,179.63Z" style="fill:none"></path><path d="M141.41,185a2.34,2.34,0,0,0,1.8-.78,2.23,2.23,0,0,0,.5-1.85h0a3.25,3.25,0,0,0-3.14-2.69h0a2.33,2.33,0,0,0-1.8.78,2.23,2.23,0,0,0-.5,1.85,3.25,3.25,0,0,0,3.14,2.69Z" style="fill:none"></path><path d="M168.84,175.54h0a2.32,2.32,0,0,0,1.8-.78,2.27,2.27,0,0,0,.5-1.85,3.25,3.25,0,0,0-3.14-2.69h0a2.36,2.36,0,0,0-1.8.78,2.28,2.28,0,0,0-.51,1.85A3.26,3.26,0,0,0,168.84,175.54Z" style="fill:none"></path><path d="M163.32,203.73h0a2.29,2.29,0,0,0,1.8-.78,2.26,2.26,0,0,0,.51-1.84h0a3.26,3.26,0,0,0-3.14-2.69h0a2.32,2.32,0,0,0-1.8.78,2.28,2.28,0,0,0-.5,1.84A3.24,3.24,0,0,0,163.32,203.73Z" style="fill:none"></path><path d="M171.56,194.33h0a2.33,2.33,0,0,0,1.8-.78,2.27,2.27,0,0,0,.51-1.85h0a3.26,3.26,0,0,0-3.14-2.69h0a2.36,2.36,0,0,0-1.81.78,2.31,2.31,0,0,0-.5,1.85A3.24,3.24,0,0,0,171.56,194.33Z" style="fill:none"></path><path d="M126.9,151.47h0a3.24,3.24,0,0,1,3.14,2.69h0a2.28,2.28,0,0,1-.5,1.84,2.32,2.32,0,0,1-1.8.78h0a3.25,3.25,0,0,1-2.66-1.49c0,.26,0,.52,0,.79a3.7,3.7,0,0,0,2.63,1.18h0a2.84,2.84,0,0,0,2.16-.94,2.78,2.78,0,0,0,.61-2.23,3.74,3.74,0,0,0-3.61-3.1h0a2.9,2.9,0,0,0-1,.19c-.09.21-.17.42-.25.64A2.48,2.48,0,0,1,126.9,151.47Z" style="fill:#fff"></path><path d="M130.45,176.05a2.78,2.78,0,0,0,2.16-1,2.73,2.73,0,0,0,.62-2.22h0a3.75,3.75,0,0,0-3.61-3.1h0a3.2,3.2,0,0,0-1,.17c0,.16.08.31.11.46a3.05,3.05,0,0,1,.87-.16h0a3.27,3.27,0,0,1,3.14,2.7,2.26,2.26,0,0,1-.51,1.84,2.29,2.29,0,0,1-1.8.78h0a3.88,3.88,0,0,1-.48,0c0,.16.07.32.11.48a2.21,2.21,0,0,0,.37,0Z" style="fill:#fff"></path><path d="M135.47,191.73h0a2.21,2.21,0,0,1-2.19,2.61c0,.16,0,.31.05.47a2.77,2.77,0,0,0,2-.93,2.73,2.73,0,0,0,.61-2.22,3.72,3.72,0,0,0-3.42-3.08c0,.16,0,.32.07.48A3.26,3.26,0,0,1,135.47,191.73Z" style="fill:#fff"></path><path d="M138.66,210.46h0a3.75,3.75,0,0,0-3.61-3.1h0a2.89,2.89,0,0,0-1.25.27c0,.18,0,.37,0,.56a2.38,2.38,0,0,1,1.27-.36h0a3.27,3.27,0,0,1,3.14,2.69v.11h.48C138.66,210.57,138.67,210.52,138.66,210.46Z" style="fill:#fff"></path><path d="M136,147.86h0a2.81,2.81,0,0,0,2.16-1,2.76,2.76,0,0,0,.63-2l-.48,0a2.25,2.25,0,0,1-.51,1.64,2.36,2.36,0,0,1-1.8.78h0a3.27,3.27,0,0,1-2.91-1.94l-.48.1A3.78,3.78,0,0,0,136,147.86Z" style="fill:#fff"></path><path d="M137.86,160.38a2.71,2.71,0,0,0-2.78,3.17,3.75,3.75,0,0,0,3.61,3.1h0a2.78,2.78,0,0,0,2.16-1,2.74,2.74,0,0,0,.62-2.22,3.75,3.75,0,0,0-3.61-3.1Zm3.14,3.16a2.27,2.27,0,0,1-.51,1.85,2.33,2.33,0,0,1-1.8.78h0a3.25,3.25,0,0,1-3.14-2.69,2.28,2.28,0,0,1,.51-1.85,2.33,2.33,0,0,1,1.8-.78h0A3.25,3.25,0,0,1,141,163.54Z" style="fill:#fff"></path><path d="M141.41,185.44a2.83,2.83,0,0,0,2.16-.95,2.71,2.71,0,0,0,.61-2.23h0a3.74,3.74,0,0,0-3.61-3.1h0a2.79,2.79,0,0,0-2.16.94,2.71,2.71,0,0,0-.61,2.23,3.74,3.74,0,0,0,3.61,3.1Zm-3.14-3.17a2.23,2.23,0,0,1,.5-1.85,2.33,2.33,0,0,1,1.8-.78h0a3.25,3.25,0,0,1,3.14,2.69h0a2.23,2.23,0,0,1-.5,1.85,2.34,2.34,0,0,1-1.8.78h0A3.25,3.25,0,0,1,138.27,182.27Z" style="fill:#fff"></path><path d="M144.12,204.22h0a2.71,2.71,0,0,0,2.78-3.17h0a3.75,3.75,0,0,0-3.61-3.09h0a2.71,2.71,0,0,0-2.78,3.17A3.74,3.74,0,0,0,144.12,204.22Zm-2.63-5a2.33,2.33,0,0,1,1.8-.78h0a3.26,3.26,0,0,1,3.14,2.69,2.27,2.27,0,0,1-.51,1.85,2.33,2.33,0,0,1-1.8.78h0a3.25,3.25,0,0,1-3.14-2.69A2.27,2.27,0,0,1,141.49,199.21Z" style="fill:#fff"></path><path d="M146.1,151h0a2.71,2.71,0,0,0-2.78,3.17,3.75,3.75,0,0,0,3.61,3.09h0a2.71,2.71,0,0,0,2.78-3.17h0A3.74,3.74,0,0,0,146.1,151Zm2.64,5a2.36,2.36,0,0,1-1.81.78h0a3.26,3.26,0,0,1-3.14-2.69,2.27,2.27,0,0,1,.51-1.85,2.33,2.33,0,0,1,1.8-.78h0a3.25,3.25,0,0,1,3.14,2.69h0A2.3,2.3,0,0,1,148.74,156Z" style="fill:#fff"></path><path d="M149.65,176h0a2.79,2.79,0,0,0,2.16-.94,2.75,2.75,0,0,0,.62-2.23h0a3.74,3.74,0,0,0-3.61-3.09h0a2.81,2.81,0,0,0-2.16.94,2.74,2.74,0,0,0-.61,2.23A3.74,3.74,0,0,0,149.65,176ZM147,171a2.36,2.36,0,0,1,1.8-.78h0a3.27,3.27,0,0,1,3.14,2.69,2.27,2.27,0,0,1-.51,1.85,2.33,2.33,0,0,1-1.8.78h0a3.25,3.25,0,0,1-3.14-2.69A2.3,2.3,0,0,1,147,171Z" style="fill:#fff"></path><path d="M152.36,194.82h0a2.71,2.71,0,0,0,2.78-3.17h0a3.75,3.75,0,0,0-3.61-3.1h0a2.78,2.78,0,0,0-2.16.95,2.74,2.74,0,0,0-.62,2.22A3.75,3.75,0,0,0,152.36,194.82Zm-2.63-5a2.33,2.33,0,0,1,1.8-.78h0a3.25,3.25,0,0,1,3.14,2.69h0a2.31,2.31,0,0,1-.5,1.85,2.36,2.36,0,0,1-1.81.78h0a3.26,3.26,0,0,1-3.14-2.69A2.27,2.27,0,0,1,149.73,189.81Z" style="fill:#fff"></path><path d="M157.86,210.44h0a3.75,3.75,0,0,0-3.61-3.1h0a2.81,2.81,0,0,0-2.16.95,2.73,2.73,0,0,0-.61,2.22.53.53,0,0,0,0,.12H152c0-.06,0-.12,0-.18a2.3,2.3,0,0,1,.5-1.85,2.36,2.36,0,0,1,1.8-.78h0a3.26,3.26,0,0,1,3.14,2.69v.12h.47A1.21,1.21,0,0,0,157.86,210.44Z" style="fill:#fff"></path><path d="M151.56,144.74a3.75,3.75,0,0,0,3.61,3.1h0a2.81,2.81,0,0,0,2.16-.94,2.76,2.76,0,0,0,.62-2l-.47,0a2.31,2.31,0,0,1-.51,1.76,2.36,2.36,0,0,1-1.8.78h0a3.27,3.27,0,0,1-3.14-2.69v-.11h-.48C151.56,144.62,151.55,144.68,151.56,144.74Z" style="fill:#fff"></path><path d="M157.05,160.36a2.81,2.81,0,0,0-2.16.95,2.77,2.77,0,0,0-.61,2.22,3.74,3.74,0,0,0,3.61,3.1h0a2.81,2.81,0,0,0,2.16-.94,2.75,2.75,0,0,0,.62-2.23h0a3.75,3.75,0,0,0-3.61-3.1Zm3.15,3.17h0a2.28,2.28,0,0,1-.51,1.85,2.33,2.33,0,0,1-1.8.78h0a3.25,3.25,0,0,1-3.14-2.69,2.3,2.3,0,0,1,.5-1.85,2.36,2.36,0,0,1,1.8-.78h0A3.26,3.26,0,0,1,160.2,163.53Z" style="fill:#fff"></path><path d="M159.77,179.15h0a2.78,2.78,0,0,0-2.16.95,2.73,2.73,0,0,0-.62,2.22,3.75,3.75,0,0,0,3.61,3.1h0a2.84,2.84,0,0,0,2.16-.94,2.78,2.78,0,0,0,.61-2.23h0A3.74,3.74,0,0,0,159.77,179.15Zm2.64,5a2.39,2.39,0,0,1-1.8.78h0a3.27,3.27,0,0,1-3.14-2.7,2.26,2.26,0,0,1,.51-1.84,2.29,2.29,0,0,1,1.8-.78h0a3.24,3.24,0,0,1,3.14,2.69A2.31,2.31,0,0,1,162.41,184.17Z" style="fill:#fff"></path><path d="M163.32,204.21h0a2.81,2.81,0,0,0,2.16-.94,2.75,2.75,0,0,0,.62-2.23h0a3.75,3.75,0,0,0-3.61-3.1h0a2.84,2.84,0,0,0-2.16.94,2.78,2.78,0,0,0-.61,2.23A3.75,3.75,0,0,0,163.32,204.21Zm-2.64-5a2.32,2.32,0,0,1,1.8-.78h0a3.26,3.26,0,0,1,3.14,2.69h0a2.26,2.26,0,0,1-.51,1.84,2.29,2.29,0,0,1-1.8.78h0a3.24,3.24,0,0,1-3.14-2.69A2.28,2.28,0,0,1,160.68,199.2Z" style="fill:#fff"></path><path d="M162.52,154.13a3.75,3.75,0,0,0,3.61,3.1h0a2.78,2.78,0,0,0,2.16-.95,2.72,2.72,0,0,0,.62-2.22h0a3.75,3.75,0,0,0-3.61-3.1h0a2.81,2.81,0,0,0-2.16.94A2.75,2.75,0,0,0,162.52,154.13Zm2.78-2.69h0a3.26,3.26,0,0,1,3.14,2.69,2.26,2.26,0,0,1-.51,1.84,2.29,2.29,0,0,1-1.8.78h0a3.24,3.24,0,0,1-3.14-2.69,2.31,2.31,0,0,1,.5-1.85A2.35,2.35,0,0,1,165.3,151.44Z" style="fill:#fff"></path><path d="M168.84,176h0a2.81,2.81,0,0,0,2.16-1,2.73,2.73,0,0,0,.61-2.22,3.74,3.74,0,0,0-3.61-3.1h0a2.82,2.82,0,0,0-2.16.94,2.75,2.75,0,0,0-.62,2.23A3.75,3.75,0,0,0,168.84,176Zm-2.63-5a2.36,2.36,0,0,1,1.8-.78h0a3.25,3.25,0,0,1,3.14,2.69,2.27,2.27,0,0,1-.5,1.85,2.32,2.32,0,0,1-1.8.78h0a3.26,3.26,0,0,1-3.14-2.69A2.28,2.28,0,0,1,166.21,171Z" style="fill:#fff"></path><path d="M171.56,194.81h0a2.78,2.78,0,0,0,2.16-.95,2.74,2.74,0,0,0,.62-2.22,3.75,3.75,0,0,0-3.61-3.1h0a2.71,2.71,0,0,0-2.78,3.17A3.75,3.75,0,0,0,171.56,194.81Zm-2.64-5a2.36,2.36,0,0,1,1.81-.78h0a3.26,3.26,0,0,1,3.14,2.69h0a2.27,2.27,0,0,1-.51,1.85,2.33,2.33,0,0,1-1.8.78h0a3.24,3.24,0,0,1-3.14-2.69A2.31,2.31,0,0,1,168.92,189.79Z" style="fill:#fff"></path><path d="M173.44,207.33h0a2.79,2.79,0,0,0-2.16.94,2.75,2.75,0,0,0-.62,2.23l0,.13h.48c0-.07,0-.13-.05-.2a2.28,2.28,0,0,1,.51-1.85,2.33,2.33,0,0,1,1.8-.78h0a3.29,3.29,0,0,1,2.73,1.58l.06-.72A3.74,3.74,0,0,0,173.44,207.33Z" style="fill:#fff"></path><path d="M176.25,160.82h0a3.25,3.25,0,0,1,2.25,1c0-.22,0-.44,0-.65a3.68,3.68,0,0,0-2.23-.8h0a2.79,2.79,0,0,0-2.16.94,2.71,2.71,0,0,0-.61,2.23,3.74,3.74,0,0,0,3.61,3.1h0a3.07,3.07,0,0,0,1.49-.41v-.56a2.44,2.44,0,0,1-1.49.49h0a3.25,3.25,0,0,1-3.14-2.69,2.24,2.24,0,0,1,.5-1.85A2.34,2.34,0,0,1,176.25,160.82Z" style="fill:#fff"></path><path d="M176.66,182.24a2.27,2.27,0,0,1,.51-1.85,2.19,2.19,0,0,1,1-.65l0-.51a2.7,2.7,0,0,0-1.42.85,2.75,2.75,0,0,0-.62,2.23,3.7,3.7,0,0,0,1.78,2.57l0-.56A3.14,3.14,0,0,1,176.66,182.24Z" style="fill:#fff"></path><path d="M133.85,205.38c8.48,2.17,21.41,2.79,42.62.53-.51,11.25,4.43,86.9,4.43,86.9s-43,9.45-67.3-3.38C112,232.26,133.85,205.38,133.85,205.38Z" style="fill:#263238"></path><path d="M150.08,251s-11.67-10.87-17.44-18.29C133.1,240.49,140.06,247.47,150.08,251Z" style="opacity:0.2"></path><path d="M225.83,165.12a31.4,31.4,0,1,1,43-10.94A31.41,31.41,0,0,1,225.83,165.12Z" style="fill:#FFFFFF;opacity:0.6000000000000001"></path><g style="clip-path:url(#freepik--clip-path--inject-51)"><text transform="matrix(0.58, -0.08, 0.08, 0.58, 218.25, 119.01)" style="font-size:16.55112075805664px;fill:#fff;font-family:Arial-BoldItalicMT, Arial;font-weight:700;font-style:italic">1001001<tspan x="0" y="17.96" xml:space="preserve">1000</tspan><tspan x="73.61" y="17.96" style="letter-spacing:-0.07418362522276188em">11</tspan><tspan x="89.56" y="17.96">101</tspan><tspan x="0" y="35.92" xml:space="preserve">0010</tspan><tspan x="46.02" y="35.92" style="letter-spacing:-0.07418362522276188em">1</tspan><tspan x="53.99" y="35.92" style="letter-spacing:0.0001012054914362372em">100</tspan></text><text transform="matrix(0.58, -0.08, 0.08, 0.58, 205.69, 152.85)" style="font-size:16.55112075805664px;fill:#fff;font-family:Arial-BoldItalicMT, Arial;font-weight:700;font-style:italic">1001001<tspan x="0" y="17.96" xml:space="preserve">1000</tspan><tspan x="73.61" y="17.96" style="letter-spacing:-0.07418362522276188em">11</tspan><tspan x="89.56" y="17.96">101</tspan><tspan x="0" y="35.92" xml:space="preserve">0010</tspan><tspan x="46.02" y="35.92" style="letter-spacing:-0.07418362522276188em">1</tspan><tspan x="53.99" y="35.92" style="letter-spacing:0.0001012054914362372em">100</tspan></text></g><path d="M259.23,109a33.95,33.95,0,1,0,11.82,46.52A33.94,33.94,0,0,0,259.23,109Zm-32.51,54.68a29.67,29.67,0,1,1,40.66-10.34A29.67,29.67,0,0,1,226.72,163.63Z" style="fill:#263238"></path><path d="M227.13,166.47l-1.56-.93-1.55-.93s-13.84,18.53-17.58,24.81-5.73,11.93-3.09,13.5,6.64-2.88,10.38-9.16S227.13,166.47,227.13,166.47Z" style="fill:#263238"></path><path d="M215.94,185.08l-2.31-1.14a4.82,4.82,0,0,0-4.42.07l-3.86,2.07a8,8,0,0,0-4.16,6.06h0a1.13,1.13,0,0,0,.6,1.16c4.28,2.11,10.09,1.82,10.67,1.78h.1l1.92.08a3.07,3.07,0,0,0,3.27-2.88l.2-3.91A3.53,3.53,0,0,0,215.94,185.08Z" style="fill:#ce7a63"></path><path d="M179.88,162.75l.07,1.59.09,1.75c.08,1.17.16,2.36.27,3.54.2,2.37.52,4.73.86,7.07s.82,4.65,1.35,6.92,1.22,4.46,1.94,6.63l-.7-1.25a1.49,1.49,0,0,0-.56-.42c-.14-.05-.16,0-.06.08a3.84,3.84,0,0,0,1.62.46,26.42,26.42,0,0,0,5.78-.1c2.12-.21,4.33-.58,6.56-1s4.53-.93,6.7-1.39l.2,0a3.76,3.76,0,0,1,2.83,6.83,60.06,60.06,0,0,1-6.66,3.72A56.64,56.64,0,0,1,193,200a33,33,0,0,1-8.39,1.65,18,18,0,0,1-5.43-.54,12.26,12.26,0,0,1-3.29-1.42,11.44,11.44,0,0,1-3.15-2.86,5.27,5.27,0,0,1-.53-.88l-.17-.37a64,64,0,0,1-3.26-8c-.46-1.35-.84-2.71-1.24-4.08s-.69-2.74-1-4.12a78.28,78.28,0,0,1-1.32-8.3c-.13-1.4-.26-2.79-.32-4.21,0-.7-.06-1.41-.07-2.13s0-1.38,0-2.29a7.5,7.5,0,0,1,15-.17Z" style="fill:#ce7a63"></path><path d="M169.71,147.19c6.68,3.7,11.72,10,12.33,24.93-4.16,4-17.12,4.61-17.12,4.61S157.37,155.87,169.71,147.19Z" style="fill:#FFFFFF"></path><path d="M179.39,163.51a3.25,3.25,0,0,0-3.14-2.69h0a2.34,2.34,0,0,0-1.8.78,2.24,2.24,0,0,0-.5,1.85,3.25,3.25,0,0,0,3.14,2.69h0a2.33,2.33,0,0,0,1.8-.78,2.23,2.23,0,0,0,.5-1.85Z" style="fill:none"></path><path d="M168,170.22a2.36,2.36,0,0,0-1.8.78,2.28,2.28,0,0,0-.51,1.85,3.26,3.26,0,0,0,3.14,2.69h0a2.32,2.32,0,0,0,1.8-.78,2.27,2.27,0,0,0,.5-1.85,3.25,3.25,0,0,0-3.14-2.69Z" style="fill:none"></path><path d="M165.63,151.47a3.25,3.25,0,0,1,2.81,2.66,2.26,2.26,0,0,1-.51,1.84,2.29,2.29,0,0,1-1.8.78h0a3.24,3.24,0,0,1-2.41-1.14c-.06.17-.1.34-.15.51a3.69,3.69,0,0,0,2.56,1.11h0a2.78,2.78,0,0,0,2.16-.95,2.72,2.72,0,0,0,.62-2.22h0a3.77,3.77,0,0,0-3-3Z" style="fill:#fff"></path><path d="M168,169.75a2.82,2.82,0,0,0-2.16.94,2.75,2.75,0,0,0-.62,2.23,3.75,3.75,0,0,0,3.61,3.1h0a2.81,2.81,0,0,0,2.16-1,2.73,2.73,0,0,0,.61-2.22,3.74,3.74,0,0,0-3.61-3.1Zm3.14,3.16a2.27,2.27,0,0,1-.5,1.85,2.32,2.32,0,0,1-1.8.78h0a3.26,3.26,0,0,1-3.14-2.69,2.28,2.28,0,0,1,.51-1.85,2.36,2.36,0,0,1,1.8-.78h0A3.25,3.25,0,0,1,171.15,172.91Z" style="fill:#fff"></path><path d="M176.25,160.35h0a2.79,2.79,0,0,0-2.16.94,2.71,2.71,0,0,0-.61,2.23,3.74,3.74,0,0,0,3.61,3.1h0a2.83,2.83,0,0,0,2.16-1,2.71,2.71,0,0,0,.61-2.23h0A3.74,3.74,0,0,0,176.25,160.35Zm2.64,5a2.33,2.33,0,0,1-1.8.78h0a3.25,3.25,0,0,1-3.14-2.69,2.24,2.24,0,0,1,.5-1.85,2.34,2.34,0,0,1,1.8-.78h0a3.25,3.25,0,0,1,3.14,2.69h0A2.23,2.23,0,0,1,178.89,165.36Z" style="fill:#fff"></path><path d="M132.76,315l-.18,0c-1.08-.28-1-2.88-.45-5.19s1.79-4.61,2.88-4.33,1,2.88.45,5.18h0a11.63,11.63,0,0,1-1.28,3.18C133.69,314.61,133.21,315,132.76,315Zm2.07-9.15c-.61,0-1.69,1.65-2.3,4.05s-.45,4.53.15,4.68c.28.07.73-.3,1.16-1a11.08,11.08,0,0,0,1.22-3.06h0c.66-2.57.45-4.53-.15-4.68Zm.43,4.74h0Z" style="fill:#fff"></path></g><g id="freepik--Plant--inject-51"><path d="M339.16,387.25a.5.5,0,0,1-.49-.39C327.28,333,349.34,276.22,377.1,257a.5.5,0,0,1,.69.13.51.51,0,0,1-.12.7c-27.5,19-49.33,75.32-38,128.81a.49.49,0,0,1-.38.59Z" style="fill:#263238"></path><path d="M339.16,387.25a.5.5,0,0,1-.49-.39C327.28,333,349.34,276.22,377.1,257a.5.5,0,0,1,.69.13.51.51,0,0,1-.12.7c-27.5,19-49.33,75.32-38,128.81a.49.49,0,0,1-.38.59Z" style="fill:#263238"></path><path d="M374,259.84c9.14-10.29,25.29-19.35,34.34-15.88C405.13,253.11,387.76,259.55,374,259.84Z" style="fill:#263238"></path><path d="M366.94,266.6c-11-8.24-21.39-23.59-18.68-32.9C357.64,236.14,365.5,252.92,366.94,266.6Z" style="fill:#263238"></path><path d="M358.42,277.54c13.71,1.12,30.67,8.59,33.33,17.91C382.5,298.38,366.92,288.36,358.42,277.54Z" style="fill:#263238"></path><path d="M350.62,291.64c-12.73-5.24-26.61-17.51-26.3-27.2C334,264.46,345.81,278.74,350.62,291.64Z" style="fill:#263238"></path><path d="M344.43,307c13.56-2.34,31.84.66,36.74,9C373,321.17,355.37,315.36,344.43,307Z" style="fill:#263238"></path><path d="M336.72,345.54c10-1.76,23.4.4,27,6.54C357.71,355.88,344.77,351.65,336.72,345.54Z" style="fill:#263238"></path><path d="M329.17,391.24h-.08a.5.5,0,0,1-.41-.58c5.85-32.49-8.35-66.06-25.28-77a.51.51,0,0,1-.14-.7.5.5,0,0,1,.69-.14c17.2,11.14,31.63,45.16,25.72,78A.51.51,0,0,1,329.17,391.24Z" style="fill:#263238"></path><path d="M329.17,391.24h-.08a.5.5,0,0,1-.41-.58c5.85-32.49-8.35-66.06-25.28-77a.51.51,0,0,1-.14-.7.5.5,0,0,1,.69-.14c17.2,11.14,31.63,45.16,25.72,78A.51.51,0,0,1,329.17,391.24Z" style="fill:#263238"></path><path d="M305.76,314.6c-5.71-6.06-15.65-11.25-21.06-9C286.81,311.1,297.44,314.67,305.76,314.6Z" style="fill:#263238"></path><path d="M310.16,318.56c6.52-5.19,12.51-14.67,10.7-20.25C315.23,300,310.78,310.25,310.16,318.56Z" style="fill:#263238"></path><path d="M315.52,325c-8.28.93-18.4,5.76-19.84,11.45C301.33,338.07,310.57,331.72,315.52,325Z" style="fill:#263238"></path><path d="M320.5,333.4c7.6-3.4,15.77-11.08,15.41-16.93C330,316.66,323.17,325.51,320.5,333.4Z" style="fill:#263238"></path><path d="M324.52,342.58c-8.25-1.16-19.25,1-22.06,6.14C307.53,351.68,318.06,347.84,324.52,342.58Z" style="fill:#263238"></path><rect x="314.46" y="379.25" width="43.96" height="4.66" style="fill:#FFFFFF"></rect><rect x="308.88" y="374.59" width="46.38" height="4.66" style="fill:#FFFFFF"></rect><rect x="317.35" y="383.9" width="44.52" height="4.66" style="fill:#FFFFFF"></rect><rect x="312.84" y="411.85" width="47.35" height="4.66" style="fill:#FFFFFF"></rect><rect x="309.37" y="388.56" width="49.66" height="4.66" style="fill:#FFFFFF"></rect><rect x="365.47" y="388.56" width="4.98" height="4.66" style="fill:#FFFFFF"></rect><rect x="341.41" y="393.22" width="20.98" height="4.66" style="fill:#FFFFFF"></rect><rect x="315.22" y="402.54" width="26.43" height="4.66" transform="translate(656.86 809.73) rotate(180)" style="fill:#FFFFFF"></rect><rect x="344.61" y="402.54" width="13.92" height="4.66" transform="translate(703.13 809.73) rotate(180)" style="fill:#FFFFFF"></rect><rect x="309.7" y="407.19" width="14.54" height="4.66" style="fill:#FFFFFF"></rect><rect x="332.55" y="407.19" width="6.74" height="4.66" style="fill:#FFFFFF"></rect><rect x="350.83" y="407.19" width="14.04" height="4.66" style="fill:#FFFFFF"></rect><rect x="348.24" y="416.51" width="14.04" height="4.66" style="fill:#FFFFFF"></rect><rect x="316.42" y="393.22" width="21.75" height="4.66" style="fill:#FFFFFF"></rect><rect x="315.22" y="416.51" width="30.49" height="4.66" style="fill:#FFFFFF"></rect><rect x="312.2" y="397.88" width="48.2" height="4.66" style="fill:#FFFFFF"></rect></g></svg>